<svg width="25" height="25" viewBox="0 0 25 25" fill="none" xmlns="http://www.w3.org/2000/svg">
<path d="M18.5026 15.333C18.5026 16.4281 18.8138 16.8648 19.6276 16.8648C21.4414 16.8648 22.5964 14.5507 22.5964 10.7022C22.5964 4.81983 18.3151 2.00381 12.9701 2.00381C7.47135 2.00381 2.47005 5.69592 2.47005 12.6734C2.47005 19.338 6.84505 22.9675 13.5638 22.9675C15.8451 22.9675 17.3763 22.7172 19.7188 21.935L20.2214 24.03C17.9089 24.7823 15.4375 25 13.5326 25C4.72005 25 0 20.1502 0 12.6721C0 5.13141 5.47005 0 13.0013 0C20.8451 0 25 4.69337 25 10.4506C25 15.3317 23.4701 19.0551 18.6576 19.0551C16.4688 19.0551 15.0326 18.179 14.8451 16.2377C14.2826 18.3967 12.7826 19.0551 10.75 19.0551C8.03125 19.0551 5.75 16.9574 5.75 12.7347C5.75 8.47935 7.7513 5.85106 11.3451 5.85106C13.2513 5.85106 14.4388 6.602 14.9674 7.79099L15.875 6.13267H18.5V15.333H18.5026ZM14.6602 11.2028C14.6602 9.48321 13.3776 8.76225 12.3151 8.76225C11.1589 8.76225 9.87891 9.69962 9.87891 12.4544C9.87891 14.6446 10.8477 15.8649 12.3151 15.8649C13.3464 15.8649 14.6602 15.2078 14.6602 13.393V11.2028Z" fill="white"/>
</svg>
