<svg width="24" height="24" viewBox="0 0 24 24" fill="none" xmlns="http://www.w3.org/2000/svg">
<path d="M12 0C8.8174 0 5.76516 1.26428 3.51472 3.51472C1.26428 5.76516 0 8.8174 0 12C0 15.1826 1.26428 18.2348 3.51472 20.4853C5.76516 22.7357 8.8174 24 12 24C15.1826 24 18.2348 22.7357 20.4853 20.4853C22.7357 18.2348 24 15.1826 24 12C24 8.8174 22.7357 5.76516 20.4853 3.51472C18.2348 1.26428 15.1826 0 12 0V0ZM15.163 21.783H15.07C15.0001 21.7869 14.9302 21.7766 14.8645 21.7525C14.7988 21.7284 14.7388 21.6912 14.688 21.643C14.6411 21.5934 14.6045 21.535 14.5805 21.4711C14.5565 21.4072 14.5454 21.3392 14.548 21.271V19.865C14.554 19.398 14.558 18.925 14.558 18.449C14.5564 18.1009 14.5055 17.7548 14.407 17.421C14.3137 17.0835 14.1256 16.7799 13.865 16.546C14.562 16.4787 15.2472 16.3204 15.903 16.075C16.4562 15.8646 16.9566 15.5356 17.369 15.111C17.776 14.684 18.079 14.168 18.254 13.605C18.4669 12.9155 18.5682 12.1965 18.554 11.475C18.5579 10.9713 18.4698 10.4711 18.294 9.999C18.1154 9.5232 17.8453 9.08699 17.499 8.715C17.5738 8.52739 17.6281 8.33226 17.661 8.133C17.694 7.933 17.711 7.731 17.711 7.529C17.711 7.269 17.681 7.009 17.621 6.756C17.5665 6.4965 17.4926 6.24146 17.4 5.993C17.3646 5.97921 17.3269 5.97242 17.289 5.973H17.179C16.949 5.975 16.723 6.013 16.505 6.084C16.2649 6.15409 16.03 6.24097 15.802 6.344C15.5753 6.44561 15.3546 6.56013 15.141 6.687C14.926 6.814 14.736 6.936 14.568 7.049C12.8857 6.58013 11.1073 6.58013 9.425 7.049C9.23739 6.92357 9.04666 6.80287 8.853 6.687C8.63636 6.55907 8.41192 6.44485 8.181 6.345C7.95366 6.23856 7.71785 6.15126 7.476 6.084C7.2623 6.0134 7.03904 5.97597 6.814 5.973H6.704C6.66638 5.97247 6.62902 5.97926 6.594 5.993C6.50006 6.2418 6.42322 6.49673 6.364 6.756C6.31 7.01 6.284 7.269 6.283 7.529C6.283 7.731 6.3 7.933 6.334 8.133C6.367 8.332 6.42 8.527 6.494 8.715C6.14859 9.08748 5.87952 9.52404 5.702 10C5.52528 10.4719 5.43615 10.9721 5.439 11.476C5.42501 12.1936 5.52354 12.9089 5.731 13.596C5.912 14.159 6.214 14.676 6.615 15.112C7.03 15.534 7.53 15.862 8.081 16.076C8.734 16.326 9.418 16.486 10.114 16.552C9.91967 16.7281 9.76551 16.944 9.662 17.185C9.56353 17.4233 9.4963 17.6734 9.462 17.929C9.09508 18.1047 8.6938 18.1969 8.287 18.199C7.90921 18.2141 7.53635 18.1091 7.222 17.899C6.92044 17.6755 6.66506 17.3957 6.47 17.075C6.3827 16.9403 6.28508 16.8126 6.178 16.693C6.06504 16.5672 5.94049 16.4524 5.806 16.35C5.67344 16.2509 5.52813 16.1702 5.374 16.11C5.22235 16.0435 5.05858 16.0091 4.893 16.009C4.853 16.01 4.813 16.014 4.773 16.019C4.71837 16.0188 4.66394 16.0255 4.611 16.039C4.56447 16.0512 4.52046 16.0715 4.481 16.099C4.46306 16.1089 4.44806 16.1233 4.43752 16.1409C4.42698 16.1585 4.42128 16.1785 4.421 16.199C4.4252 16.2471 4.43992 16.2937 4.46411 16.3356C4.4883 16.3774 4.52137 16.4134 4.561 16.441C4.654 16.515 4.731 16.572 4.793 16.612L4.823 16.633C4.956 16.736 5.084 16.847 5.205 16.966C5.317 17.064 5.418 17.175 5.505 17.296C5.595 17.415 5.673 17.542 5.736 17.677C5.809 17.811 5.886 17.965 5.967 18.14C6.155 18.614 6.489 19.015 6.921 19.285C7.374 19.528 7.882 19.649 8.397 19.636C8.571 19.636 8.746 19.626 8.919 19.606C9.091 19.578 9.262 19.549 9.434 19.515V21.258C9.43711 21.3283 9.42536 21.3984 9.39951 21.4638C9.37366 21.5293 9.3343 21.5885 9.28399 21.6377C9.23369 21.6869 9.17357 21.7249 9.10758 21.7492C9.04158 21.7736 8.97119 21.7837 8.901 21.779H8.839C6.50704 21.0257 4.52066 19.4645 3.23757 17.3766C1.95447 15.2887 1.45897 12.8114 1.84028 10.3906C2.2216 7.9698 3.45467 5.7647 5.31747 4.17236C7.18027 2.58002 9.55038 1.70507 12.001 1.70507C14.4516 1.70507 16.8217 2.58002 18.6845 4.17236C20.5473 5.7647 21.7804 7.9698 22.1617 10.3906C22.543 12.8114 22.0475 15.2887 20.7644 17.3766C19.4813 19.4645 17.495 21.0257 15.163 21.779V21.784V21.783Z" fill="white"/>
</svg>
