<svg width="26" height="26" viewBox="0 0 26 26" fill="none" xmlns="http://www.w3.org/2000/svg">
<path d="M13 7.04167C11.8216 7.04167 10.6696 7.39112 9.68973 8.04583C8.70988 8.70054 7.94619 9.6311 7.49522 10.7198C7.04425 11.8086 6.92625 13.0066 7.15616 14.1624C7.38606 15.3182 7.95353 16.3799 8.78682 17.2132C9.62011 18.0465 10.6818 18.6139 11.8376 18.8438C12.9934 19.0737 14.1914 18.9558 15.2802 18.5048C16.3689 18.0538 17.2995 17.2901 17.9542 16.3103C18.6089 15.3304 18.9583 14.1784 18.9583 13C18.9565 11.4203 18.3282 9.90582 17.2112 8.7888C16.0942 7.67179 14.5797 7.04346 13 7.04167ZM13 17.875C12.0358 17.875 11.0933 17.5891 10.2916 17.0534C9.48991 16.5177 8.86506 15.7564 8.49609 14.8656C8.12711 13.9748 8.03057 12.9946 8.21867 12.0489C8.40677 11.1033 8.87107 10.2346 9.55286 9.55286C10.2346 8.87107 11.1033 8.40677 12.0489 8.21867C12.9946 8.03057 13.9748 8.12711 14.8656 8.49609C15.7564 8.86506 16.5177 9.48991 17.0534 10.2916C17.5891 11.0933 17.875 12.0358 17.875 13C17.8736 14.2925 17.3595 15.5316 16.4456 16.4456C15.5316 17.3595 14.2925 17.8736 13 17.875ZM18.9583 0H7.04167C5.17475 0.00211464 3.3849 0.744682 2.06479 2.06479C0.744682 3.3849 0.00211464 5.17475 0 7.04167V18.9583C0.00211464 20.8253 0.744682 22.6151 2.06479 23.9352C3.3849 25.2553 5.17475 25.9979 7.04167 26H18.9583C20.8253 25.9979 22.6151 25.2553 23.9352 23.9352C25.2553 22.6151 25.9979 20.8253 26 18.9583V7.04167C25.9979 5.17475 25.2553 3.3849 23.9352 2.06479C22.6151 0.744682 20.8253 0.00211464 18.9583 0ZM24.9167 18.9583C24.9149 20.538 24.2865 22.0525 23.1695 23.1695C22.0525 24.2865 20.538 24.9149 18.9583 24.9167H7.04167C5.46197 24.9149 3.94748 24.2865 2.83047 23.1695C1.71345 22.0525 1.08513 20.538 1.08333 18.9583V7.04167C1.08513 5.46197 1.71345 3.94748 2.83047 2.83047C3.94748 1.71345 5.46197 1.08513 7.04167 1.08333H18.9583C20.538 1.08513 22.0525 1.71345 23.1695 2.83047C24.2865 3.94748 24.9149 5.46197 24.9167 7.04167V18.9583ZM21.125 5.95833C21.125 6.1726 21.0615 6.38205 20.9424 6.5602C20.8234 6.73836 20.6542 6.87721 20.4562 6.9592C20.2583 7.0412 20.0405 7.06265 19.8303 7.02085C19.6202 6.97905 19.4271 6.87587 19.2756 6.72437C19.1241 6.57286 19.021 6.37983 18.9792 6.16968C18.9373 5.95954 18.9588 5.74171 19.0408 5.54376C19.1228 5.34581 19.2616 5.17661 19.4398 5.05757C19.618 4.93854 19.8274 4.875 20.0417 4.875C20.3289 4.87536 20.6042 4.98961 20.8073 5.1927C21.0104 5.39578 21.1246 5.67113 21.125 5.95833Z" fill="white"/>
</svg>
