<svg width="20" height="21" viewBox="0 0 20 21" fill="none" xmlns="http://www.w3.org/2000/svg">
<path fill-rule="evenodd" clip-rule="evenodd" d="M20 3.99948C19.9999 3.42283 19.8752 2.85301 19.6343 2.32908C19.3934 1.80515 19.0421 1.3395 18.6044 0.964044C18.1667 0.588585 17.6531 0.312196 17.0986 0.15382C16.5441 -0.00455548 15.962 -0.0411726 15.392 0.0464783L8.392 1.12348C7.44752 1.26873 6.58625 1.7473 5.96406 2.47257C5.34187 3.19784 4.99989 4.1219 5 5.07748V13.8405C4.31482 13.5155 3.54262 13.4218 2.7996 13.5736C2.05658 13.7253 1.38296 14.1143 0.880102 14.682C0.377247 15.2496 0.0723684 15.9652 0.0113509 16.7211C-0.0496666 17.477 0.136478 18.2323 0.54177 18.8733C0.947062 19.5142 1.54957 20.0062 2.25863 20.2752C2.96768 20.5442 3.74492 20.5756 4.47336 20.3647C5.2018 20.1538 5.84203 19.712 6.29771 19.1058C6.75339 18.4996 6.99985 17.7618 7 17.0035V5.07748C6.99971 4.59951 7.17059 4.13725 7.48171 3.7744C7.79282 3.41156 8.22359 3.17213 8.696 3.09948L15.696 2.02248C15.9811 1.97863 16.2723 1.99698 16.5497 2.07625C16.827 2.15553 17.0839 2.29386 17.3028 2.48175C17.5216 2.66964 17.6973 2.90266 17.8176 3.1648C17.938 3.42695 18.0002 3.71203 18 4.00048V10.8405C17.3148 10.5155 16.5426 10.4218 15.7996 10.5736C15.0566 10.7253 14.383 11.1143 13.8801 11.682C13.3772 12.2496 13.0724 12.9652 13.0114 13.7211C12.9503 14.477 13.1365 15.2323 13.5418 15.8733C13.9471 16.5142 14.5496 17.0062 15.2586 17.2752C15.9677 17.5442 16.7449 17.5756 17.4734 17.3647C18.2018 17.1538 18.842 16.712 19.2977 16.1058C19.7534 15.4996 19.9998 14.7618 20 14.0035V4.00048V3.99948ZM18 14.0035C18 13.6057 17.842 13.2241 17.5607 12.9428C17.2794 12.6615 16.8978 12.5035 16.5 12.5035C16.1022 12.5035 15.7206 12.6615 15.4393 12.9428C15.158 13.2241 15 13.6057 15 14.0035C15 14.4013 15.158 14.7828 15.4393 15.0641C15.7206 15.3454 16.1022 15.5035 16.5 15.5035C16.8978 15.5035 17.2794 15.3454 17.5607 15.0641C17.842 14.7828 18 14.4013 18 14.0035ZM5 17.0035C5 16.8065 4.96121 16.6114 4.88582 16.4295C4.81044 16.2475 4.69995 16.0821 4.56066 15.9428C4.42138 15.8035 4.25602 15.693 4.07403 15.6177C3.89204 15.5423 3.69699 15.5035 3.5 15.5035C3.30302 15.5035 3.10797 15.5423 2.92598 15.6177C2.74399 15.693 2.57863 15.8035 2.43934 15.9428C2.30005 16.0821 2.18957 16.2475 2.11418 16.4295C2.0388 16.6114 2 16.8065 2 17.0035C2 17.4013 2.15804 17.7828 2.43934 18.0641C2.72065 18.3454 3.10218 18.5035 3.5 18.5035C3.89783 18.5035 4.27936 18.3454 4.56066 18.0641C4.84197 17.7828 5 17.4013 5 17.0035Z" fill="#F8F8F8"/>
</svg>
