<svg width="21" height="20" viewBox="0 0 21 20" fill="none" xmlns="http://www.w3.org/2000/svg">
<path d="M20.17 7C20.17 3.13 17.04 0 13.17 0C9.3 0 6.17 3.13 6.17 7C6.16872 8.65277 6.75397 10.2524 7.82156 11.5141C8.88915 12.7758 10.3698 13.6177 12 13.89V17.83H4V14.83H5V10.83C5 10.28 4.55 9.83 4 9.83H1C0.45 9.83 0 10.28 0 10.83V14.83H1V19.83H17V17.83H14V13.95C15.7006 13.7469 17.2677 12.9274 18.4048 11.6467C19.5418 10.3659 20.1698 8.71268 20.17 7ZM13.17 12C10.41 12 8.17 9.76 8.17 7C8.17 4.24 10.41 2 13.17 2C15.93 2 18.17 4.24 18.17 7C18.17 9.76 15.93 12 13.17 12Z" fill="#F8F8F8"/>
</svg>
