<svg width="33" height="32" viewBox="0 0 33 32" fill="none" xmlns="http://www.w3.org/2000/svg">
<path d="M14.033 31.885C11.179 31.515 8.24097 30.291 6.10097 28.578C1.28297 24.734 -0.904033 18.661 0.345967 12.63C0.881967 10.026 2.27797 7.286 4.06497 5.312C5.38136 3.8305 6.96886 2.61434 8.74197 1.729C11.096 0.536 13.346 0 16.002 0C17.908 0 19.44 0.25 21.195 0.849C23.5006 1.63984 25.5952 2.94662 27.3192 4.66973C29.0431 6.39284 30.351 8.4868 31.143 10.792C32.081 13.542 32.252 16.469 31.653 19.37C31.174 21.662 29.939 24.24 28.419 26.104C27.794 26.875 26.356 28.25 25.601 28.807C23.3423 30.4845 20.6859 31.5453 17.893 31.885C17.07 31.989 14.829 31.984 14.033 31.885ZM18.393 30.547C22.2913 29.8936 25.7704 27.7185 28.065 24.5C30.768 20.703 31.492 15.609 29.966 11.167C29.607 10.125 28.716 8.386 28.065 7.469C27.341 6.443 25.549 4.646 24.518 3.922C23.518 3.214 21.815 2.354 20.653 1.974C18.5555 1.27714 16.3282 1.06047 14.1357 1.34001C11.9432 1.61954 9.84152 2.38814 7.98597 3.589C6.24014 4.73582 4.74779 6.22817 3.60097 7.974C2.40041 9.82856 1.63197 11.9292 1.35243 14.1207C1.07289 16.3122 1.2894 18.5384 1.98597 20.635C2.37097 21.796 3.23097 23.505 3.93397 24.505C4.66297 25.531 6.45497 27.328 7.48097 28.052C8.40297 28.698 10.137 29.588 11.179 29.953C13.4983 30.741 15.976 30.945 18.393 30.547ZM12.851 25.182C12.1033 25.0693 11.386 24.8071 10.742 24.411C10.164 24.041 5.79897 19.765 5.58597 19.364C5.34097 18.906 5.76797 18.072 6.37797 17.817L6.66397 17.697L5.78397 16.801C5.29997 16.306 4.84097 15.78 4.76797 15.634C4.59597 15.301 4.59097 14.587 4.75197 14.269C4.81997 14.139 4.98097 13.941 5.10597 13.831C5.31997 13.654 5.33997 13.591 5.31997 13.143C5.29397 12.747 5.32997 12.591 5.50197 12.294C5.75197 11.867 6.26797 11.58 6.77297 11.575C7.05397 11.575 7.12697 11.539 7.24697 11.33C7.55997 10.783 8.45497 10.585 9.13797 10.919L9.50797 11.096L9.68997 10.919C9.93997 10.69 10.44 10.487 10.768 10.487C11.424 10.487 12.351 11.242 12.351 11.773C12.351 12.408 11.773 12.518 11.2 11.992C10.82 11.638 10.627 11.601 10.471 11.851C10.393 11.971 10.58 12.195 11.7 13.325C12.82 14.45 13.023 14.69 13.023 14.903C13.0141 15.0663 12.9446 15.2203 12.8281 15.335C12.7115 15.4497 12.5564 15.5168 12.393 15.523C12.19 15.523 11.857 15.231 10.32 13.7C8.75197 12.137 8.46597 11.887 8.34097 11.966C8.00197 12.18 8.11697 12.336 9.94997 14.174C10.945 15.174 11.763 16.059 11.763 16.143C11.763 16.315 11.607 16.633 11.477 16.716C11.3703 16.7628 11.2543 16.7844 11.138 16.779C10.924 16.784 10.596 16.487 8.85197 14.748C7.10197 13.008 6.78897 12.727 6.66397 12.805C6.31997 13.024 6.43497 13.175 8.42997 15.18C9.51897 16.269 10.43 17.243 10.456 17.347C10.513 17.535 10.388 17.863 10.222 17.977C10.1118 18.0238 9.99255 18.0454 9.87297 18.04C9.65897 18.04 9.38897 17.806 7.94597 16.363C6.55497 14.972 6.23197 14.686 6.05497 14.702C5.55497 14.759 5.73197 14.983 8.31497 17.572C10.555 19.817 10.841 20.135 10.841 20.369C10.8432 20.4549 10.8239 20.54 10.7848 20.6165C10.7456 20.6931 10.6879 20.7585 10.617 20.807C10.216 21.125 10.06 21.052 9.04897 20.073C8.53297 19.578 8.00197 19.099 7.86097 19.01C7.60597 18.854 6.95997 18.786 6.83997 18.911C6.79797 18.947 7.75097 19.953 8.95497 21.145C10.96 23.129 11.189 23.333 11.778 23.614C12.3206 23.8842 12.9182 24.0257 13.5243 24.0274C14.1304 24.0291 14.7288 23.8911 15.273 23.624C16.955 22.822 17.888 20.874 17.429 19.108C17.2 18.228 16.913 17.806 15.757 16.613C14.424 15.248 14.116 14.873 13.788 14.217C13.423 13.483 13.267 12.769 13.267 11.878C13.267 10.914 13.366 10.477 13.793 9.576C14.199 8.717 15.048 7.816 15.887 7.352C17.533 6.435 19.7 6.513 21.272 7.54C21.585 7.743 22.715 8.806 24.121 10.217C26.21 12.311 26.449 12.582 26.449 12.821C26.449 13.389 25.985 14.019 25.47 14.149C25.277 14.201 25.314 14.253 26.189 15.144C26.699 15.66 27.173 16.217 27.246 16.389C27.491 16.978 27.381 17.55 26.933 18.019C26.704 18.259 26.673 18.342 26.667 18.821C26.662 19.243 26.615 19.42 26.448 19.66C26.3161 19.8552 26.1395 20.0162 25.9328 20.1294C25.7262 20.2426 25.4955 20.3049 25.26 20.311C24.937 20.311 24.875 20.342 24.713 20.587C24.348 21.15 23.4 21.347 22.786 20.983L22.479 20.801L22.26 21.015C21.776 21.479 20.994 21.541 20.401 21.161C19.922 20.859 19.568 20.437 19.568 20.171C19.568 19.937 19.907 19.551 20.115 19.551C20.313 19.551 20.579 19.707 20.881 19.989C21.183 20.275 21.444 20.275 21.485 19.984C21.506 19.828 21.256 19.531 20.245 18.515C19.182 17.442 18.979 17.197 18.979 16.989C18.9766 16.8729 18.998 16.7575 19.042 16.65C19.157 16.478 19.48 16.358 19.677 16.41C19.781 16.436 20.661 17.249 21.625 18.212C22.594 19.181 23.443 19.972 23.521 19.972C23.735 19.972 23.875 19.758 23.776 19.576C23.729 19.493 22.911 18.654 21.963 17.706C20.479 16.227 20.239 15.951 20.239 15.732C20.2341 15.6141 20.2556 15.4965 20.302 15.388C20.391 15.258 20.703 15.102 20.88 15.102C20.958 15.102 21.937 16.013 23.057 17.128C25.109 19.17 25.26 19.284 25.474 18.946C25.552 18.821 25.271 18.503 23.531 16.758C21.734 14.956 21.495 14.685 21.495 14.451C21.495 14.29 21.568 14.123 21.683 14.019C22.063 13.66 22.178 13.733 24.027 15.571C25.777 17.316 25.933 17.43 26.147 17.097C26.225 16.972 25.871 16.587 23.699 14.409C21.334 12.034 21.163 11.841 21.163 11.565C21.163 11.148 21.403 10.95 21.866 10.982C21.949 10.987 22.449 11.409 22.965 11.914C23.486 12.419 24.048 12.893 24.215 12.966C24.543 13.101 24.923 13.122 25.085 13.018C25.241 12.919 20.918 8.664 20.356 8.367C19.8741 8.10692 19.3441 7.94821 18.7986 7.90064C18.2531 7.85306 17.7036 7.91763 17.184 8.09037C16.6644 8.2631 16.1856 8.54035 15.7772 8.90505C15.3687 9.26975 15.0392 9.71419 14.809 10.211C14.538 10.789 14.502 10.961 14.465 11.706C14.434 12.409 14.46 12.628 14.611 13.076C14.882 13.873 15.116 14.201 16.33 15.441C17.643 16.785 17.893 17.092 18.226 17.811C19.164 19.811 18.768 22.124 17.221 23.665C16.044 24.847 14.44 25.4 12.851 25.182Z" fill="#3870B2"/>
</svg>
