<svg width="92" height="92" viewBox="0 0 92 92" fill="none" xmlns="http://www.w3.org/2000/svg">
<path d="M46 92C58.2 92 69.9002 87.1536 78.5269 78.5269C87.1536 69.9002 92 58.2 92 46C92 33.8 87.1536 22.0998 78.5269 13.4731C69.9002 4.84642 58.2 0 46 0C33.8 0 22.0998 4.84642 13.4731 13.4731C4.84642 22.0998 0 33.8 0 46C0 58.2 4.84642 69.9002 13.4731 78.5269C22.0998 87.1536 33.8 92 46 92V92ZM51.3475 37.881L45.5975 64.9348C45.195 66.8898 45.7643 67.9995 47.3455 67.9995C48.461 67.9995 50.1458 67.597 51.29 66.585L50.784 68.977C49.1337 70.9665 45.494 72.4155 42.3603 72.4155C38.318 72.4155 36.5988 69.989 37.7143 64.8312L41.9577 44.8903C42.3257 43.2055 41.9923 42.596 40.3075 42.1877L37.7143 41.722L38.1857 39.5312L51.3532 37.881H51.3475ZM46 31.625C44.475 31.625 43.0125 31.0192 41.9341 29.9409C40.8558 28.8625 40.25 27.4 40.25 25.875C40.25 24.35 40.8558 22.8875 41.9341 21.8091C43.0125 20.7308 44.475 20.125 46 20.125C47.525 20.125 48.9875 20.7308 50.0659 21.8091C51.1442 22.8875 51.75 24.35 51.75 25.875C51.75 27.4 51.1442 28.8625 50.0659 29.9409C48.9875 31.0192 47.525 31.625 46 31.625V31.625Z" fill="#F8F8F8"/>
</svg>
