<svg width="68" height="68" viewBox="0 0 68 68" fill="none" xmlns="http://www.w3.org/2000/svg">
<path d="M27.812 51.0272C28.22 51.0272 28.5294 51.0136 28.7334 50.9864C28.9727 50.938 29.1885 50.8097 29.3454 50.6226C29.5494 50.4084 29.6514 50.099 29.6514 49.691L29.6378 47.7972C29.6276 46.5902 29.6242 45.6314 29.6242 44.9276L28.985 45.0398C28.4735 45.1204 27.9555 45.1523 27.438 45.135C26.7878 45.1235 26.1396 45.0587 25.5 44.9412C24.8212 44.8147 24.1825 44.5279 23.6368 44.1048C23.0648 43.6721 22.6379 43.0757 22.4128 42.3946L22.134 41.752C21.8995 41.246 21.605 40.77 21.2568 40.3342C20.9442 39.8875 20.5276 39.5234 20.043 39.2734L19.8492 39.1374C19.7157 39.0391 19.5947 38.925 19.4888 38.7974C19.386 38.6816 19.3012 38.5509 19.2372 38.4098C19.1828 38.2806 19.227 38.1718 19.3732 38.0902C19.6298 37.9871 19.9066 37.9441 20.1824 37.9644L20.74 38.0494C21.114 38.1208 21.573 38.3452 22.1204 38.7158C22.6644 39.0898 23.1166 39.5692 23.4702 40.1642C23.8986 40.9258 24.412 41.5072 25.0172 41.905C25.5514 42.2818 26.186 42.4902 26.8396 42.5034C27.4516 42.5034 27.982 42.4592 28.4274 42.3674C28.8609 42.2775 29.2821 42.136 29.682 41.9458C29.8486 40.7048 30.3008 39.746 31.042 39.0796C30.0797 38.9845 29.1261 38.8162 28.1894 38.5764C27.2748 38.3244 26.3953 37.9589 25.5714 37.4884C24.7086 37.0203 23.9461 36.3873 23.3274 35.6252C22.7358 34.8806 22.2496 33.9082 21.8654 32.7012C21.4648 31.3453 21.2733 29.9363 21.2976 28.5226C21.2976 26.2786 22.032 24.3644 23.4974 22.7868C22.8106 21.097 22.8752 19.2032 23.6912 17.1054C24.2318 16.9354 25.0308 17.0612 26.0882 17.4794C27.1456 17.8976 27.9242 18.2546 28.4138 18.5538C28.9068 18.8496 29.2978 19.0978 29.597 19.3018C31.3384 18.8182 33.1379 18.5757 34.9452 18.581C36.7812 18.581 38.5662 18.819 40.2934 19.3052L41.3474 18.6354C42.075 18.1934 42.9284 17.782 43.911 17.4114C44.897 17.0374 45.6484 16.9354 46.1686 17.1054C47.005 19.2032 47.0798 21.097 46.3896 22.7834C47.8584 24.3644 48.5928 26.2752 48.5928 28.5226C48.5928 30.1002 48.4024 31.4976 48.0216 32.7148C47.6408 33.932 47.1478 34.9044 46.546 35.6388C45.9171 36.3934 45.1511 37.0221 44.2884 37.4918C43.4646 37.9624 42.5851 38.3279 41.6704 38.5798C40.7325 38.8187 39.7777 38.9858 38.8144 39.0796C39.78 39.9126 40.2628 41.2318 40.2628 43.0338V49.6876C40.2628 50.0038 40.3104 50.2588 40.4022 50.456C40.4454 50.55 40.5071 50.6342 40.5836 50.7038C40.6602 50.7733 40.7499 50.8266 40.8476 50.8606C41.0516 50.932 41.2352 50.9796 41.3916 50.9966C41.5514 51.017 41.7758 51.0272 42.0716 51.0272H27.8154H27.812Z" fill="#3870B2"/>
<path d="M34 61.2C41.2139 61.2 48.1323 58.3343 53.2333 53.2333C58.3343 48.1323 61.2 41.2139 61.2 34C61.2 26.7861 58.3343 19.8677 53.2333 14.7667C48.1323 9.66571 41.2139 6.8 34 6.8C26.7861 6.8 19.8677 9.66571 14.7667 14.7667C9.66571 19.8677 6.8 26.7861 6.8 34C6.8 41.2139 9.66571 48.1323 14.7667 53.2333C19.8677 58.3343 26.7861 61.2 34 61.2V61.2ZM34 68C15.2218 68 0 52.7782 0 34C0 15.2218 15.2218 0 34 0C52.7782 0 68 15.2218 68 34C68 52.7782 52.7782 68 34 68Z" fill="#3870B2"/>
</svg>
