<svg width="20" height="18" viewBox="0 0 20 18" fill="none" xmlns="http://www.w3.org/2000/svg">
<path d="M16 8C16 7.041 15.32 6.239 14.419 6.046C14.779 5.445 15 4.75 15 4C15 1.794 13.206 0 11 0C9.483 0 8.179 0.857 7.5 2.104C6.821 0.857 5.517 0 4 0C1.794 0 0 1.794 0 4C0 4.902 0.312 5.727 0.817 6.396C0.564588 6.58057 0.359123 6.82193 0.2172 7.10056C0.0752771 7.3792 0.000873958 7.6873 0 8V16C0 17.103 0.897 18 2 18H14C15.103 18 16 17.103 16 16V13.362L20 15.362V8.362L16 10.362V8ZM11 2C12.103 2 13 2.897 13 4C13 5.103 12.103 6 11 6C9.897 6 9 5.103 9 4C9 2.897 9.897 2 11 2ZM4 2C5.103 2 6 2.897 6 4C6 5.103 5.103 6 4 6C2.897 6 2 5.103 2 4C2 2.897 2.897 2 4 2ZM2 16V8H14L14.002 16H2Z" fill="#F8F8F8"/>
</svg>
