<svg width="29" height="29" viewBox="0 0 29 29" fill="none" xmlns="http://www.w3.org/2000/svg">
<path d="M14.895 0.930176C7.1953 0.930176 0.929993 7.19374 0.929993 14.8943C0.929993 22.5949 7.1953 28.8584 14.895 28.8584C22.5947 28.8584 28.86 22.5949 28.86 14.8943C28.86 7.19374 22.5947 0.930176 14.895 0.930176ZM14.895 27.9283C7.70827 27.9283 1.86186 22.081 1.86186 14.8943C1.86186 7.70758 7.70827 1.8603 14.895 1.8603C22.0817 1.8603 27.9281 7.70758 27.9281 14.8943C27.9281 22.081 22.0817 27.9283 14.895 27.9283Z" fill="white"/>
<path d="M22.5538 10.5798C22.6503 10.401 22.7299 10.2135 22.7915 10.0198C22.82 9.92993 22.8206 9.83356 22.7932 9.74338C22.7657 9.6532 22.7116 9.57345 22.6379 9.51468C22.5642 9.4559 22.4745 9.42085 22.3805 9.41416C22.2864 9.40747 22.1926 9.42945 22.1113 9.4772C21.6651 9.74231 21.182 9.93983 20.6778 10.0633C20.0658 9.51097 19.271 9.20476 18.4466 9.20374C17.9987 9.20408 17.5554 9.29486 17.1435 9.47063C16.7315 9.64641 16.3593 9.90356 16.0491 10.2267C15.7389 10.5498 15.4972 10.9322 15.3384 11.351C15.1796 11.7698 15.107 12.2163 15.1249 12.6639C13.1663 12.4173 11.3777 11.4262 10.1303 9.89611C10.0825 9.83814 10.0214 9.79257 9.95221 9.76326C9.88303 9.73395 9.8078 9.72177 9.73291 9.72775C9.65802 9.73374 9.58568 9.75771 9.52204 9.79763C9.45839 9.83756 9.40533 9.89225 9.36734 9.95707C9.08171 10.4473 8.92645 11.0026 8.91639 11.5699C8.90632 12.1372 9.04179 12.6976 9.30986 13.1977C9.24412 13.2088 9.18095 13.2318 9.12349 13.2656C9.05307 13.3105 8.9951 13.3725 8.95491 13.4457C8.91473 13.5189 8.89363 13.601 8.89357 13.6846C8.89357 14.673 9.33338 15.5805 10.0423 16.1971L10.0118 16.2276C9.95829 16.2881 9.92147 16.3616 9.90498 16.4407C9.88849 16.5198 9.89289 16.6018 9.91776 16.6787C10.0656 17.1399 10.3124 17.5632 10.641 17.919C10.9695 18.2748 11.3719 18.5544 11.8198 18.7384C10.8998 19.1872 9.87017 19.3623 8.85351 19.2427C8.749 19.232 8.64392 19.2564 8.55471 19.3118C8.46551 19.3673 8.39723 19.4508 8.36057 19.5492C8.32537 19.6484 8.32471 19.7566 8.3587 19.8562C8.39269 19.9558 8.45933 20.041 8.54782 20.0979C9.92996 20.985 11.5379 21.4563 13.1802 21.4557C18.5624 21.4557 21.7795 17.0837 21.7795 12.8572L21.7786 12.7144C22.3003 12.3071 22.7533 11.8191 23.1207 11.2687C23.1763 11.1854 23.2037 11.0865 23.1987 10.9866C23.1938 10.8866 23.1567 10.7909 23.0931 10.7136C23.0295 10.6363 22.9427 10.5816 22.8456 10.5575C22.7484 10.5334 22.6461 10.5412 22.5538 10.5798ZM21.034 12.1082C20.9708 12.1537 20.92 12.2142 20.8862 12.2843C20.8525 12.3545 20.8368 12.432 20.8407 12.5097C20.8459 12.6247 20.8485 12.7414 20.8485 12.8563C20.8485 16.6256 17.9806 20.5247 13.181 20.5247C12.325 20.5251 11.4751 20.3814 10.6667 20.0997C11.6348 19.9141 12.5443 19.499 13.3186 18.8891C13.394 18.8297 13.4492 18.7484 13.4767 18.6564C13.5041 18.5644 13.5025 18.4662 13.472 18.3752C13.4415 18.2842 13.3836 18.2048 13.3063 18.1479C13.2289 18.091 13.1359 18.0594 13.04 18.0574C12.6644 18.0502 12.2959 17.9549 11.964 17.7791C11.6321 17.6033 11.3461 17.352 11.1292 17.0454C11.3495 17.0306 11.5655 16.994 11.7754 16.9374C11.877 16.9102 11.9664 16.8494 12.0289 16.7649C12.0915 16.6804 12.1236 16.5771 12.1199 16.4721C12.1163 16.367 12.0772 16.2662 12.0089 16.1862C11.9406 16.1062 11.8473 16.0517 11.744 16.0316C11.3199 15.9454 10.9273 15.7454 10.608 15.4532C10.2888 15.161 10.055 14.7874 9.93169 14.3726C10.1634 14.4309 10.4011 14.4649 10.6389 14.4727C10.8435 14.4719 11.0334 14.3464 11.097 14.1496C11.1605 13.9528 11.0856 13.7359 10.9123 13.621C10.5025 13.348 10.187 12.9551 10.0089 12.496C9.8307 12.037 9.79858 11.5341 9.91689 11.0562C11.4297 12.6084 13.4724 13.5327 15.637 13.6445C15.7903 13.6454 15.9244 13.5905 16.0176 13.4781C16.1108 13.3658 16.1465 13.2169 16.1134 13.074C15.9943 12.5611 16.0476 12.0232 16.265 11.5435C16.4824 11.0639 16.8518 10.6693 17.3161 10.4208C17.7804 10.1723 18.3137 10.0837 18.8334 10.1688C19.353 10.2539 19.8302 10.5079 20.191 10.8916C20.2451 10.9492 20.3129 10.9922 20.3882 11.0164C20.4634 11.0407 20.5436 11.0453 20.6212 11.03C20.7649 11.0013 20.9069 10.9682 21.0471 10.9299C20.9839 10.9772 20.9182 11.0211 20.8503 11.0614C20.7599 11.1167 20.6912 11.2011 20.6553 11.3008C20.6194 11.4004 20.6185 11.5093 20.6528 11.6095C20.6871 11.7097 20.7545 11.7953 20.8439 11.852C20.9333 11.9088 21.0394 11.9334 21.1446 11.9218L21.3031 11.9018C21.2158 11.9737 21.1261 12.0425 21.034 12.1082Z" fill="white"/>
</svg>
