<svg width="20" height="20" viewBox="0 0 20 20" fill="none" xmlns="http://www.w3.org/2000/svg">
<path d="M10 6C7.79 6 6 7.79 6 10C6 12.21 7.79 14 10 14C12.21 14 14 12.21 14 10C14 7.79 12.21 6 10 6ZM10 12C8.9 12 8 11.1 8 10C8 8.9 8.9 8 10 8C11.1 8 12 8.9 12 10C12 11.1 11.1 12 10 12Z" fill="#FFD233"/>
<path d="M20 5.47V3.35C18.05 2.77 14.56 2 10 2C7.85 2 5.89 2.86 4.46 4.24C4.59 3.39 4.86 1.84 5.47 0H3.35C2.77 1.95 2 5.44 2 10C2 12.15 2.86 14.11 4.24 15.54C3.39 15.4 1.84 15.14 0 14.53V16.65C1.95 17.23 5.44 18 10 18C12.15 18 14.11 17.14 15.54 15.76C15.4 16.61 15.14 18.16 14.53 20H16.65C17.23 18.05 18 14.56 18 10C18 7.85 17.14 5.89 15.76 4.46C16.61 4.59 18.16 4.86 20 5.47ZM10 16C6.69 16 4 13.31 4 10C4 6.69 6.69 4 10 4C13.31 4 16 6.69 16 10C16 13.31 13.31 16 10 16Z" fill="#FFD233"/>
</svg>
