<svg width="29" height="28" viewBox="0 0 29 28" fill="none" xmlns="http://www.w3.org/2000/svg">
<path d="M4.66425 0C3.42722 0 2.24084 0.491411 1.36613 1.36613C0.491411 2.24084 0 3.42722 0 4.66425V19.0776C0 20.3147 0.491411 21.501 1.36613 22.3758C2.24084 23.2505 3.42722 23.7419 4.66425 23.7419H14.6458C14.7034 23.6062 14.7713 23.4705 14.8459 23.3399L16.084 21.1994H4.66425C3.49395 21.1994 2.54414 20.2496 2.54414 19.0793V6.78437H21.1961V8.73487C21.9836 8.31426 22.85 8.06186 23.7402 7.99368V4.66425C23.7402 3.42722 23.2488 2.24084 22.3741 1.36613C21.4993 0.491411 20.313 0 19.0759 0H4.66425Z" fill="#3DDC84"/>
<path d="M20.3904 17.1305C19.8425 16.3657 19.5359 15.4546 19.5101 14.5141C19.4842 13.5737 19.7402 12.6471 20.2453 11.8534C20.7503 11.0596 21.4812 10.4351 22.344 10.0601C23.2068 9.68515 24.162 9.57683 25.0869 9.74911L22.8633 13.5992C22.6666 13.9595 22.6185 14.3824 22.7294 14.7776C22.8403 15.1729 23.1014 15.509 23.4569 15.7143C23.8123 15.9197 24.234 15.9778 24.6317 15.8764C25.0295 15.7749 25.3718 15.522 25.5855 15.1715L27.8074 11.3214C28.4164 12.0339 28.7992 12.9117 28.907 13.8428C29.0148 14.7739 28.8426 15.716 28.4125 16.5487C27.9823 17.3815 27.3138 18.0672 26.4921 18.5182C25.6705 18.9693 24.7331 19.1652 23.7996 19.081L19.7171 26.1537C19.4564 26.6049 19.0272 26.934 18.5238 27.0687C18.0204 27.2034 17.4842 27.1327 17.033 26.872C16.5818 26.6113 16.2527 26.1821 16.118 25.6787C15.9833 25.1754 16.054 24.6391 16.3147 24.1879L20.3904 17.1305V17.1305Z" fill="#3DDC84"/>
<path d="M17.9141 15.5108C17.7007 14.3264 17.8265 13.1057 18.2771 11.9897L15.0172 8.72813C14.858 8.56889 14.642 8.47943 14.4168 8.47943C14.1916 8.47943 13.9756 8.56889 13.8164 8.72813C13.6571 8.88737 13.5677 9.10335 13.5677 9.32855C13.5677 9.55375 13.6571 9.76972 13.8164 9.92897L17.4579 13.5688L13.8164 17.2086C13.6571 17.3678 13.5677 17.5838 13.5677 17.809C13.5677 18.0342 13.6571 18.2502 13.8164 18.4094C13.9756 18.5687 14.1916 18.6581 14.4168 18.6581C14.642 18.6581 14.858 18.5687 15.0172 18.4094L17.9141 15.5108V15.5108Z" fill="#3DDC84"/>
<path d="M10.777 8.72803C10.8559 8.8068 10.9186 8.90039 10.9614 9.00341C11.0041 9.10644 11.0261 9.2169 11.0261 9.32844C11.0261 9.43999 11.0041 9.55044 10.9614 9.65347C10.9186 9.7565 10.8559 9.85008 10.777 9.92886L7.13546 13.5687L10.777 17.2085C10.9362 17.3677 11.0257 17.5837 11.0257 17.8089C11.0257 18.0341 10.9362 18.2501 10.777 18.4093C10.6177 18.5686 10.4018 18.658 10.1766 18.658C9.95135 18.658 9.73538 18.5686 9.57614 18.4093L5.33591 14.1691C5.25693 14.0903 5.19427 13.9967 5.15152 13.8937C5.10877 13.7907 5.08676 13.6802 5.08676 13.5687C5.08676 13.4571 5.10877 13.3467 5.15152 13.2436C5.19427 13.1406 5.25693 13.047 5.33591 12.9683L9.57614 8.72803C9.65491 8.64905 9.74849 8.58639 9.85152 8.54364C9.95455 8.50089 10.065 8.47888 10.1766 8.47888C10.2881 8.47888 10.3985 8.50089 10.5016 8.54364C10.6046 8.58639 10.6982 8.64905 10.777 8.72803V8.72803Z" fill="#3DDC84"/>
</svg>
