<svg width="23" height="24" viewBox="0 0 23 24" fill="none" xmlns="http://www.w3.org/2000/svg">
<path d="M1.96095 6.266C2.14395 6.02 2.38495 5.687 2.57795 5.449C3.15595 4.793 3.23095 4.707 3.75695 4.222C3.91295 4.094 4.09795 3.94 4.27895 3.795C2.94395 4.925 2.77395 6.176 3.99895 6.949C3.99695 6.949 3.99695 6.949 3.99695 6.951C5.70995 7.983 9.46395 7.76 12.4259 6.438C15.2949 5.158 16.3539 3.327 14.9379 2.239C13.6949 2.006 12.2129 1.979 10.6449 2.189L10.4819 1.92L10.6169 1.474C11.5389 1.391 12.4149 1.411 13.1709 1.54C13.3539 1.571 13.5949 1.624 13.7749 1.662C14.1229 1.747 14.3119 1.798 14.5389 1.871C14.7709 1.94 14.9689 2.009 15.3139 2.137C15.6519 2.27 15.7979 2.33 16.0689 2.465C16.3724 2.60346 16.6673 2.76008 16.952 2.934C19.208 4.353 17.8049 6.942 13.8239 8.716C9.85395 10.484 4.79495 10.762 2.52795 9.36C2.52695 9.358 2.52395 9.356 2.51795 9.354H2.52195C1.28395 8.57 1.15395 7.432 1.96095 6.266ZM12.2899 16.186L12.2579 14.592L11.1249 13.332C7.38195 14.18 3.70295 13.998 1.65695 12.793C1.64995 12.785 1.63295 12.777 1.62595 12.769C0.467949 12.056 0.181949 11.136 0.268949 10.136C-0.002051 11.599 -0.024051 12.127 0.014949 13.379C0.062949 14.163 0.515949 14.886 1.42695 15.456L1.43395 15.464C3.61495 16.82 8.15895 17.114 12.2899 16.186ZM17.0149 18.011C11.7319 20.13 5.11995 20.255 2.24795 18.294C2.55811 19.052 2.98013 19.7592 3.49995 20.392C6.13595 22.192 12.205 22.077 17.052 20.132C19.889 18.995 21.679 17.482 22.149 16.064L22.281 15.637C22.594 14.555 22.653 13.654 22.7029 12.852C22.646 14.593 20.5949 16.573 17.0149 18.011ZM5.35295 22.092C5.51895 22.25 6.04095 22.891 8.68595 23.599C9.40095 23.757 11.2009 24.264 14.5259 23.527L14.5459 23.224L14.2829 22.812C11.1979 23.542 7.77095 23.298 5.35295 22.092ZM12.9869 9.483L15.7959 11.612C15.7959 11.612 16.3969 12.045 15.8299 12.349C15.2649 12.65 13.8139 13.387 13.8139 13.387L12.3809 12.852L11.6619 13.172L12.9299 14.273L12.9399 15.986L13.6849 15.655L14.1789 14.208C14.1789 14.208 15.6959 13.624 16.2979 13.404C16.9029 13.189 16.8219 13.925 16.8219 13.925L16.524 17.436L17.514 16.996L19.1439 12.259C19.1439 12.259 20.0079 11.839 20.6159 11.47C21.2229 11.101 21.431 10.489 21.431 10.489C21.431 10.489 20.8389 10.234 20.1569 10.439C19.475 10.642 18.5859 11.004 18.5859 11.004L13.9739 9.045L12.9869 9.483ZM7.04395 2.747L8.95095 4.266L9.47195 4.188L8.43395 2.825C8.43395 2.825 8.20795 2.543 8.51195 2.476C8.81795 2.408 9.59195 2.25 9.59195 2.25L10.1739 2.715L10.5659 2.657L10.1219 1.951L10.3559 1.168L9.97695 1.223L9.52795 1.819C9.52795 1.819 8.73995 1.893 8.42995 1.919C8.11795 1.943 8.25195 1.608 8.25195 1.608L8.84995 0L8.32595 0.077L6.94595 2.086C6.94595 2.086 6.48595 2.17 6.15295 2.265C5.81895 2.359 5.64295 2.617 5.64295 2.617C5.64295 2.617 5.88795 2.815 6.23295 2.808C6.58095 2.801 7.04395 2.747 7.04395 2.747ZM16.469 22.265L15.2349 21.62L14.9509 21.719L15.6819 22.373C15.6819 22.373 15.8379 22.506 15.6739 22.577C15.5099 22.647 15.0919 22.819 15.0919 22.819L14.7469 22.665L14.5419 22.739L14.8289 23.045L14.8009 23.492L15.0149 23.418L15.1749 23.055C15.1749 23.055 15.6089 22.926 15.7819 22.88C15.9539 22.833 15.9149 23.035 15.9149 23.035L15.7519 24L16.0369 23.901L16.5959 22.625C16.5959 22.625 16.8429 22.528 17.0199 22.439C17.1969 22.35 17.267 22.186 17.267 22.186C17.267 22.186 17.1099 22.1 16.9159 22.143C16.7209 22.184 16.469 22.265 16.469 22.265Z" fill="#F8F8F8"/>
</svg>
