<svg width="22" height="19" viewBox="0 0 22 19" fill="none" xmlns="http://www.w3.org/2000/svg">
<path d="M2.85894 2.69123C3.04173 2.04161 3.43178 1.46952 3.9697 1.06202C4.50762 0.654533 5.16396 0.433966 5.8388 0.433899H16.1585C17.5447 0.433899 18.7624 1.35602 19.1383 2.69123L21.7066 11.8165C21.8412 12.2951 21.8631 12.7984 21.7705 13.2869C21.6779 13.7753 21.4734 14.2357 21.173 14.6319C20.8726 15.0281 20.4845 15.3492 20.0391 15.5702C19.5938 15.7912 19.1033 15.9061 18.6061 15.9057H3.39117C2.894 15.9061 2.40349 15.7912 1.95813 15.5702C1.51278 15.3492 1.12468 15.0281 0.824292 14.6319C0.523904 14.2357 0.319392 13.7753 0.226801 13.2869C0.13421 12.7984 0.156058 12.2951 0.29063 11.8165L2.85894 2.69123V2.69123ZM5.57888 17.4528C5.37371 17.4528 5.17694 17.5343 5.03187 17.6794C4.88679 17.8245 4.80529 18.0213 4.80529 18.2264C4.80529 18.4316 4.88679 18.6284 5.03187 18.7734C5.17694 18.9185 5.37371 19 5.57888 19H16.4168C16.622 19 16.8188 18.9185 16.9639 18.7734C17.1089 18.6284 17.1904 18.4316 17.1904 18.2264C17.1904 18.0213 17.1089 17.8245 16.9639 17.6794C16.8188 17.5343 16.622 17.4528 16.4168 17.4528H5.57888Z" fill="#9AA3AE"/>
</svg>
