<svg xmlns="http://www.w3.org/2000/svg" viewBox="0 0 218.59 218.59"><defs><style>.cls-1{fill:#cdc4bb;}.cls-2{fill:#534741;}.cls-3{fill:#998675;}</style></defs><title>Asset 2</title><g id="Layer_2" data-name="Layer 2"><g id="Layer_1-2" data-name="Layer 1"><path class="cls-1" d="M117.75,2.33l13.42,8a16.52,16.52,0,0,0,8.67,2.32l15.62-.21a16.52,16.52,0,0,1,14.64,8.45l7.63,13.63a16.49,16.49,0,0,0,6.35,6.35l13.63,7.63a16.54,16.54,0,0,1,8.45,14.64L206,78.75a16.52,16.52,0,0,0,2.32,8.67l8,13.42a16.54,16.54,0,0,1,0,16.91l-8,13.42a16.52,16.52,0,0,0-2.32,8.67l.21,15.62a16.54,16.54,0,0,1-8.45,14.64l-13.63,7.63a16.42,16.42,0,0,0-6.35,6.35l-7.63,13.63a16.54,16.54,0,0,1-14.64,8.45L139.84,206a16.52,16.52,0,0,0-8.67,2.32l-13.42,8a16.54,16.54,0,0,1-16.91,0l-13.42-8A16.52,16.52,0,0,0,78.75,206l-15.62.21a16.54,16.54,0,0,1-14.64-8.45l-7.63-13.63a16.49,16.49,0,0,0-6.35-6.35L20.88,170.1a16.52,16.52,0,0,1-8.45-14.64l.21-15.62a16.52,16.52,0,0,0-2.32-8.67l-8-13.42a16.49,16.49,0,0,1,0-16.91l8-13.42a16.52,16.52,0,0,0,2.32-8.67l-.21-15.62a16.52,16.52,0,0,1,8.45-14.64l13.63-7.63a16.56,16.56,0,0,0,6.35-6.35l7.63-13.63a16.52,16.52,0,0,1,14.64-8.45l15.62.21a16.52,16.52,0,0,0,8.67-2.32l13.42-8A16.49,16.49,0,0,1,117.75,2.33Z"/><rect class="cls-2" x="99.92" y="94.51" width="77.9" height="18" rx="9" transform="translate(-22.76 41.27) rotate(-15.64)"/><rect class="cls-3" x="99.29" y="57.29" width="18" height="63.11" rx="9"/></g></g></svg>