<svg xmlns="http://www.w3.org/2000/svg" viewBox="0 0 94 110.92"><defs><style>.cls-1{fill:#ffa116;}.cls-2{fill:#b3b3b3;}.cls-2,.cls-3{fill-rule:evenodd;}</style></defs><title>leet_code_log</title><g id="Layer_2" data-name="Layer 2"><g id="Layer_1-2" data-name="Layer 1"><g id="Group-10"><path id="Combined-Shape" class="cls-1" d="M67.51,83.07a6.38,6.38,0,0,1,9,9L65.44,103.17a26.7,26.7,0,0,1-37.27.34L8.23,84C-1.92,74-2.94,58.07,6.62,47.85L24.43,28.77c9.48-10.15,27-11.26,37.8-2.49L78.41,39.36a6.38,6.38,0,0,1-8,9.94L54.22,36.22c-5.67-4.59-15.59-4-20.48,1.28L15.93,56.57c-4.65,5-4.14,13,1.22,18.26C28.35,85.82,37,94.28,37,94.29a13.94,13.94,0,0,0,19.43-.17Z"/><path id="Path-2" class="cls-2" d="M40.61,72a6.39,6.39,0,0,1,0-12.77h47a6.39,6.39,0,0,1,0,12.77Z"/><path id="Stroke-3" class="cls-3" d="M49.41,2a6.38,6.38,0,1,1,9.31,8.73L15.93,56.57c-4.65,5-4.14,13,1.22,18.26L36.91,94.21A6.38,6.38,0,0,1,28,103.34L8.23,84C-1.92,74-2.94,58.07,6.62,47.85Z"/></g></g></g></svg>